HIERARCHY
ROOT root
{
	OFFSET	0	13.1	24.9
	CHANNELS 6  Xposition Yposition Zposition Xrotation Yrotation Zrotation
	JOINT spine_1
	{
		OFFSET	0	9.99999	0
		CHANNELS 3  Xrotation Yrotation Zrotation
		JOINT spine_2
		{
			OFFSET	0	112	-10
			CHANNELS 3  Xrotation Yrotation Zrotation
			JOINT spine_3
			{
				OFFSET	0	206.5	19.3
				CHANNELS 3  Xrotation Yrotation Zrotation
				JOINT spine_4
				{
					OFFSET	0	110.4	14.6
					CHANNELS 3  Xrotation Yrotation Zrotation
					JOINT neck_1
					{
						OFFSET	0	71.8	-50.3
						CHANNELS 3  Xrotation Yrotation Zrotation
						JOINT neck_2
						{
							OFFSET	0	86.2	-25.8
							CHANNELS 3  Xrotation Yrotation Zrotation
							JOINT head_ee
							{
								OFFSET	0	179.8	-8.7
								CHANNELS 3  Xrotation Yrotation Zrotation
								End Site
								{
									OFFSET	1	0	0
								}
							}
						}
					}
					JOINT left_clavicle
					{
						OFFSET	-43.2	22.4	-70.8
						CHANNELS 3  Xrotation Yrotation Zrotation
						JOINT left_shoulder
						{
							OFFSET	-93.9	-5.79999	48.7
							CHANNELS 3  Xrotation Yrotation Zrotation
							JOINT left_elbow
							{
								OFFSET	-291.4	-30.8	15.2
								CHANNELS 3  Xrotation Yrotation Zrotation
								JOINT left_lowarm_twist
								{
									OFFSET	-110.7	-3.89999	13.6
									CHANNELS 3  Xrotation Yrotation Zrotation
									JOINT left_hand
									{
										OFFSET	-110.7	-3.89999	13.6
										CHANNELS 3  Xrotation Yrotation Zrotation
										JOINT left_ee
										{
											OFFSET	-80.8	-5.10001	12.1
											CHANNELS 3  Xrotation Yrotation Zrotation
											End Site
											{
												OFFSET	1	0	0
											}
										}
									}
								}
							}
						}
					}
					JOINT right_clavicle
					{
						OFFSET	43.2	22.4	-70.8
						CHANNELS 3  Xrotation Yrotation Zrotation
						JOINT right_shoulder
						{
							OFFSET	93.9	-5.79999	48.7
							CHANNELS 3  Xrotation Yrotation Zrotation
							JOINT right_elbow
							{
								OFFSET	291.4	-30.8	15.2
								CHANNELS 3  Xrotation Yrotation Zrotation
								JOINT right_lowarm_twist
								{
									OFFSET	110.7	-3.89999	13.6
									CHANNELS 3  Xrotation Yrotation Zrotation
									JOINT right_hand
									{
										OFFSET	110.7	-3.89999	13.6
										CHANNELS 3  Xrotation Yrotation Zrotation
										JOINT right_ee
										{
											OFFSET	80.8	-5.10001	12.1
											CHANNELS 3  Xrotation Yrotation Zrotation
											End Site
											{
												OFFSET	1	0	0
											}
										}
									}
								}
							}
						}
					}
				}
			}
		}
	}
	JOINT left_hip
	{
		OFFSET	-82.8	-127.5	0.300001
		CHANNELS 3  Xrotation Yrotation Zrotation
		JOINT left_knee
		{
			OFFSET	-28.2	-396.7	2.2
			CHANNELS 3  Xrotation Yrotation Zrotation
			JOINT left_ankle
			{
				OFFSET	-11.7	-411.3	35.4
				CHANNELS 3  Xrotation Yrotation Zrotation
				JOINT left_toes
				{
					OFFSET	0	-60	-88.6
					CHANNELS 3  Xrotation Yrotation Zrotation
					JOINT left_foot_ee
					{
						OFFSET	-22.5	-16.5	-42.2
						CHANNELS 3  Xrotation Yrotation Zrotation
						End Site
						{
							OFFSET	1	0	0
						}
					}
				}
			}
		}
	}
	JOINT right_hip
	{
		OFFSET	82.8	-127.5	0.300001
		CHANNELS 3  Xrotation Yrotation Zrotation
		JOINT right_knee
		{
			OFFSET	28.2	-396.7	2.2
			CHANNELS 3  Xrotation Yrotation Zrotation
			JOINT right_ankle
			{
				OFFSET	11.7	-411.3	35.4
				CHANNELS 3  Xrotation Yrotation Zrotation
				JOINT right_toes
				{
					OFFSET	0	-60	-88.6
					CHANNELS 3  Xrotation Yrotation Zrotation
					JOINT right_foot_ee
					{
						OFFSET	22.5	-16.5	-42.2
						CHANNELS 3  Xrotation Yrotation Zrotation
						End Site
						{
							OFFSET	1	0	0
						}
					}
				}
			}
		}
	}
}
MOTION
Frames: 6
Frame Time: 0.02
3664.41 739.534 -1383.14 -52.1338 74.7465 55.1179 2.91767 -0.16243 -0.835754 2.91805 -0.108921 -0.844395 2.91955 0.0276758 -0.85094 2.91856 -0.107057 -0.844633 -19.645 -2.53265 -6.74824 -19.5186 -1.41036 -7.30806 -0.0 0.0 -0.0 2.3954 15.4741 5.6299 6.1222 -25.7798 74.275 1.84248 -42.3829 0.714386 25.8535 0.175793 -3.26999 -0.9862 26.7867 5.06779 -0.0 0.0 -0.0 3.68278 2.42119 -6.96169 -30.6478 14.7342 -53.5321 1.7637 41.1394 -0.661911 20.0402 -0.26553 2.53316 5.66881 -20.9812 -48.2666 0.0 0.0 0.0 9.85832 -24.3862 -0.106727 0.184961 -0.00766017 -0.0273501 37.5119 23.6153 -4.88193 -32.2598 0.0 0.0 -0.0 0.0 -0.0 24.3057 9.87607 -0.406623 -7.56217 -0.236693 -1.13559 2.37761 -3.46905 0.347118 7.27683 -0.0 -0.0 0.0 0.0 0.0 
3653.58 740.757 -1392.62 -55.2106 75.4263 58.4883 3.03986 -0.176842 -0.97251 3.04038 -0.114604 -0.981791 3.04219 0.0419516 -0.987566 3.04085 -0.114535 -0.981799 -18.5939 -1.97448 -6.95087 -18.4578 -0.0973874 -7.2497 -0.0 0.0 -0.0 2.20304 16.4061 5.37652 5.27296 -26.1608 74.5739 1.90684 -43.3634 0.758179 26.0721 0.170963 -3.2975 -0.771944 27.2035 6.42295 -0.0 0.0 -0.0 3.65877 2.79555 -6.89137 -30.7337 14.966 -54.2814 1.50417 36.6882 -0.498766 19.42 -0.27068 2.4541 5.63333 -21.1556 -47.9511 0.0 0.0 0.0 9.41901 -24.4048 -0.776947 0.330343 -0.0137435 -0.0488306 36.8478 24.098 -4.82849 -33.0251 0.0 0.0 -0.0 0.0 -0.0 23.8362 9.94411 -0.263723 -9.30782 -0.269893 -1.4014 1.0059 -2.90917 0.147516 7.20524 -0.0 -0.0 0.0 0.0 0.0 
3643.6 737.45 -1402.27 -47.0235 73.6563 49.7987 3.17391 0.41378 -0.945046 3.17428 0.473075 -0.916804 3.16652 0.610238 -0.831832 3.16586 0.471214 -0.917761 -18.4745 -1.65378 -7.03997 -18.3358 0.583017 -7.20724 -0.0 0.0 -0.0 1.78635 15.8824 4.68719 4.17589 -27.3936 73.1845 1.89139 -43.1308 0.74759 26.866 0.152538 -3.39724 -0.656899 26.7817 6.8921 -0.0 0.0 -0.0 4.09039 3.93734 -7.68304 -31.417 15.2524 -54.749 1.3738 34.235 -0.423114 19.9367 -0.266449 2.51997 5.56353 -20.8572 -47.25 0.0 0.0 0.0 9.11726 -25.5108 -1.34348 -2.60594 0.0984904 0.387764 37.4786 22.4041 -4.846 -32.2705 0.0 0.0 -0.0 0.0 -0.0 23.3168 9.22645 -1.62994 -7.33262 -0.231725 -1.10072 2.41678 -1.29792 0.35419 7.52224 -0.0 -0.0 0.0 0.0 0.0 
3633.2 738.506 -1413.33 -48.8238 74.5996 51.4152 3.18803 0.270483 -0.959041 3.18848 0.330958 -0.939889 3.18285 0.473197 -0.876936 3.18192 0.328769 -0.940656 -19.3196 -0.798132 -7.26067 -19.1795 2.24029 -7.08095 -0.0 0.0 -0.0 1.61034 16.5546 4.4574 3.0958 -25.8504 72.5176 1.87612 -42.8992 0.737173 27.1103 0.146591 -3.42788 -0.45445 26.8021 8.02715 -0.0 0.0 -0.0 4.59529 4.08117 -8.68777 -31.7909 15.0212 -55.1266 1.1666 30.0225 -0.312844 19.4929 -0.270118 2.4634 5.47779 -20.1501 -46.345 0.0 0.0 0.0 9.06515 -27.3886 -1.4708 -5.56257 0.188731 0.832494 40.5746 21.5909 -5.12131 -31.7048 0.0 0.0 -0.0 0.0 -0.0 22.5927 9.06575 -1.75385 -9.04108 -0.265344 -1.36072 2.36853 -0.467515 0.347821 8.34408 -0.0 -0.0 0.0 0.0 0.0 
3616.35 742.649 -1422.89 -46.1407 74.9526 48.8145 3.15108 0.404041 -0.90418 3.15142 0.460756 -0.87664 3.14419 0.592113 -0.793853 3.14361 0.459313 -0.877397 -18.8302 0.0478544 -7.49556 -18.6957 4.05701 -6.96971 -0.0 0.0 -0.0 1.29482 19.4584 4.19144 1.6048 -25.6302 71.9253 1.96306 -44.1947 0.797075 26.9086 0.15151 -3.40259 -0.219933 26.8651 9.36095 -0.0 0.0 -0.0 5.10303 4.58867 -9.68692 -31.6837 14.8918 -55.8892 0.936133 24.8783 -0.206497 19.4161 -0.270709 2.45361 5.42315 -19.9202 -45.8054 0.0 0.0 0.0 9.35911 -26.9022 -1.51303 -11.4321 0.299345 1.726 40.7502 20.7306 -5.11519 -31.7129 0.0 0.0 -0.0 0.0 -0.0 21.0766 7.34789 -1.88907 -11.7909 -0.303131 -1.78093 2.53243 -0.11108 0.372048 8.96043 -0.0 -0.0 0.0 0.0 0.0 
3603.99 744.69 -1427.94 -40.237 74.0283 42.3869 3.13694 0.507805 -0.865861 3.13718 0.561871 -0.831796 3.12888 0.685177 -0.733567 3.12857 0.560729 -0.832566 -19.708 1.82534 -7.77986 -19.6212 7.51392 -6.49276 -0.0 0.0 -0.0 0.387401 21.9892 3.09933 -0.343457 -26.5696 72.387 2.17634 -47.146 0.949691 27.0929 0.147018 -3.4257 0.07125 26.9069 11.0108 -0.0 0.0 -0.0 5.43641 5.52912 -10.3226 -31.1713 14.9382 -56.2123 0.784677 21.2413 -0.147143 19.8122 -0.267523 2.50411 5.42268 -19.5327 -45.7361 0.0 0.0 0.0 10.6013 -25.9377 -0.129481 -16.3115 0.321321 2.47411 39.3458 20.2993 -4.97453 -31.9184 0.0 0.0 -0.0 0.0 -0.0 19.9977 6.22682 -1.72947 -11.3767 -0.29873 -1.71752 3.11082 0.384819 0.456867 9.33884 -0.0 -0.0 0.0 0.0 0.0 
